<svg xmlns="http://www.w3.org/2000/svg" viewBox="0 0 1440 307" preserveAspectRatio="xMinYMax"><title>euro-footer</title><g id="arbre-2" data-name="arbre"><polyline points="544.13 153.54 543.51 153.28 543.15 152.71 543.14 134.42 553.07 130.41 563 134.41 563 143 564 143 564 138.45 571.01 108.34 578 138.45 578 143 580 143 580 137.45 583.38 133 587 133 587 131 593 131 593 133 597.38 133 601 137.45 601 141 603 141 603 133.43 611 128.43 619 133.43 619 144 621 144 621 124.9 627.01 123.39 633 124.9 633 152.46 632.86 153.35 632.14 154 544 154" fill="#e3f7cc"/><polygon points="840 134.15 832 140.18 832 150 829 150 829 139 813 139 813 133 798 133 798 150 797 150 797 122 782 122 782 150 777 150 777 132.46 768.5 126.29 760 132.46 760 148.91 760 154 777.39 154 781.96 154 796.59 154 798.19 154 800.36 154 812.81 154 829.38 154 831.54 154 848 154 848 148.91 848 140.18 840 134.15" fill="#e3f7cc"/><polygon points="977 150 977 139 961 139 961 133 946 133 946 150 945 150 945 122 930 122 930 150 930 154 977 154 977 150" fill="#e3f7cc"/><polyline points="837.92 153.54 837.3 153.28 836.94 152.71 836.92 134.42 846.46 130.41 856 134.41 856 143 858 143 858 138.45 865.01 129.34 872 138.45 872 143 873 143 873 137.45 877.17 133 881 133 881 131 887 131 887 133 891.17 133 895 137.45 895 141 896 141 896 133.43 904.5 128.43 913 133.43 913 144 914 144 914 124.9 920.51 123.39 927 124.9 927 152.46 926.75 153.35 925.93 154 838 154" fill="#e3f7cc"/><polyline points="540 154 451.59 154 451.01 153.35 451 152.46 451 124.9 456.99 123.39 463 124.9 463 144 465 144 465 133.43 473 128.43 481 133.43 481 141 483 141 483 137.45 486.35 133 490 133 490 131 496 131 496 133 500.35 133 504 137.45 504 143 506 143 506 138.45 512.99 129.34 520 138.45 520 143 521 143 521 134.41 530.79 130.41 540.57 134.41 540.56 152.69 540.22 153.05 539.6 153.54" fill="#e3f7cc"/><polygon points="450 143 450 138.45 442.99 129.34 436 138.45 436 143 434 143 434 137.45 430.35 133 426 133 426 131 420 131 420 133 416.35 133 413 137.45 413 141 411 141 411 133.43 403 128.43 395 133.43 395 144 393 144 393 124.9 386.99 123.39 381 124.9 381 152.46 381.01 153.35 381.59 154 450 154 450 143" fill="#e3f7cc"/><path d="M1440,90.11h-71.9c-50.93,0-52.3.12-65.41-13-9-9-8.55-9-68.65-9H1116.45c-11.23,0-12.36-.62-32,19-10.39,10.39-18.06,18.22-35.87,36-27,27-26,27.88-85.3,27.88H354.17c-30,0-32.63-3.65-44.65-15.66-10.87-10.87-12.77-11.3-40.24-11.3H167.68c-27.21,0-29.35-.34-46.68-16.34C98.54,87,106.32,89.61,64.91,89.61c-15.55,0-64.91.5-64.91.5V183H1440Z" fill="#e3f7cc"/><path d="M811,52.13a12.1,12.1,0,0,0-8-11.36l-.15-11-1.65-.07,0-2.77-1-.69L799.61,4H798V3.79l.84.21H798l-.5,22.2-1,.8,0,2.71-1.65,0-.15,11a12,12,0,0,0,1.09,23l0,2.23H793v5h2.41l-2.84,91h12.54l-2.84-91H804V66h-2l0-2.23A12,12,0,0,0,811,52.13Z" fill="#c8c8c8"/><path d="M617,142.49l-3.87-.5a3.15,3.15,0,0,0-.45-1.08l2.33-3.11L612,140.15a2.86,2.86,0,0,0-1.07-.41l-.56-3.87-.5,3.87a3.43,3.43,0,0,0-1.06.41l-3.08-2.35,2.33,3.11a3.11,3.11,0,0,0-.45,1.08l-3.86.5,3.87.56a3.05,3.05,0,0,0,.44,1.08l-2.38,3.09,3.12-2.34a3,3,0,0,0,1.08.45l.5,3.86.56-3.86a2.86,2.86,0,0,0,1.1-.45l3.11,2.34-2.37-3.09a2.77,2.77,0,0,0,.43-1.08Zm5.3-52.86V68.46h-3V63.88s.22-8.56-8.08-9.08v-.43a2,2,0,0,0,1.52-1.83,2,2,0,0,0-1.52-1.81V45.29h-1.82v5.44a2,2,0,0,0-1.53,1.81,2,2,0,0,0,1.53,1.83v.46c-8.09.66-8.09,9.05-8.09,9.05v4.57h-3V89.63H596v72.12h28.7V89.63Zm-12-15.94c4.14,0,4,4.1,4,4.1V89.4h-8V77.79S606.2,73.69,610.34,73.69Zm0,78.28a9.46,9.46,0,1,1,9.45-9.46A9.46,9.46,0,0,1,610.37,152Z" fill="#c8c8c8"/><path d="M680.62,125.82h0a.37.37,0,0,0-.34-.34h-1.71c-.34-.86-.86-1.71-1.2-2.4h0a84.69,84.69,0,0,1-6-16.6h0a21.28,21.28,0,0,0-.68-2.74l1.54-5.13h0v-.68h0a.37.37,0,0,0-.34-.34h-2.4c-1-6.33-2.05-14-2.91-23.78h0v-.17c-.68-8.56-1.54-18.82-2.22-31.14h0c-.17-3.25-.34-6.5-.51-9.92h0c-.17-1.88-.17-3.76-.34-5.82v-.51a3.59,3.59,0,0,0,1.71-3.08v-1h0v-.68c0-.34-.51-.68-1.2-1V18.36h1a.37.37,0,0,0,.34-.34V16.47h0a.37.37,0,0,0-.34-.34,3,3,0,0,1-2.57-1.88,11.62,11.62,0,0,1-1-5.13v-.9c0-.62-1.37-.62-1.37,0,0,0,0,.55,0,.9h0a10.76,10.76,0,0,1-1,5.3,3,3,0,0,1-2.57,1.88.37.37,0,0,0-.34.34h0v1.54a.37.37,0,0,0,.34.34h1v2.05c-.68.17-1.2.51-1.2,1v.34h0v1A3.59,3.59,0,0,0,658,26.06v.51c-.17,1.88-.17,3.94-.34,5.82h0c-.17,3.42-.34,6.84-.51,9.92h0c-.68,12.32-1.37,22.59-2.22,31.14v.17h0c-.86,9.75-1.88,17.45-2.91,23.78h-2.4a.37.37,0,0,0-.34.34h0v.68h0l1.54,5.13a16,16,0,0,1-.68,2.74h0a84.69,84.69,0,0,1-6,16.6h0c-.34.86-.86,1.71-1.2,2.4h-1.71a.37.37,0,0,0-.34.34h0v7.19l-2.22,3.59h0l-.68,1.2h0l-3.76,7h0l-2.91,5h0l-3.25,5.48v.17h0v6.5H694v-6.33h0v-.17l-3.25-5.48h0l-3.08-5.13h0L683.7,138h0l-.68-1.2h0l-2.22-3.59v-7.36Zm-25.32-2.57h0c.51-1.88.86-3.76,1.2-5.65h0c.34-1.88.68-3.76.86-5.82h0c0-.51.17-.86.17-1.37h6.84c0,.51.17.86.17,1.37h0c.34,2.05.51,4.11.86,5.82h0c.34,1.88.68,3.76,1.2,5.65h0c.17.68.34,1.54.51,2.22H654.78C655,124.62,655.12,123.93,655.29,123.25Zm5.65,31.83H643a5,5,0,0,0,.34-1.54h0a16.07,16.07,0,0,1,6.5-8.38h0c.51-.34.86-.51,1.37-.86.17-.17.34-.17.68-.34h0a20,20,0,0,1,8.9-2.05h0a20,20,0,0,1,8.9,2.05h0c.17.17.34.17.68.34a6,6,0,0,1,1.37.86h0a15.43,15.43,0,0,1,6.5,8.38h0a5,5,0,0,1,.34,1.54Z" fill="#c8c8c8"/><path d="M591.66,159.79l-.57-24.61c-8.48-9.62-35.26-8.88-43.69-8.39,0,0,.78,5.69,1.26,7.54.33,1.29,1.79,5,1.79,5l4.47.35a2.57,2.57,0,0,1,2.35,2.28l.92,8.38,5.14,10.09a2.54,2.54,0,0,1,.27,1.17l1.32,0a7.69,7.69,0,0,1-.3-2.55c.1-1.56-.32-3.09-.2-4.64a2.47,2.47,0,0,1,2.72-2.56,2.72,2.72,0,0,1,2.16,1.91,11.77,11.77,0,0,1,.18,3.27c-.08,1.14.07,3.2-.09,4.45l2.67-.12a7.56,7.56,0,0,1-.25-2.36c.08-1.42-.27-2.81-.17-4.23.09-1.26.74-2.44,2.25-2.33a2.34,2.34,0,0,1,1.79,1.74,12.07,12.07,0,0,1,.14,3c-.06,1,0,2.85-.07,4l2.12-.14a13.65,13.65,0,0,1-.08-1.82c.06-1.39-.19-2.75-.12-4.13s.54-2.38,1.63-2.28c.54.05,1.18.9,1.3,1.7a15.74,15.74,0,0,1,.11,2.91c0,.86,0,2.31,0,3.41l1.65-.13a10.35,10.35,0,0,1-.13-2c0-1.21-.15-2.41-.1-3.61s.42-2.08,1.27-2c.43,0,.92.78,1,1.49a15.46,15.46,0,0,1,.08,2.54c0,.85,0,2.38,0,3.35l1.18-.11a15.16,15.16,0,0,1-.07-1.75c0-1.13-.1-2.24-.06-3.37s.28-1.94.83-1.86c.28,0,.6.73.66,1.39a21.17,21.17,0,0,1,.05,2.37c0,.79,0,2.18,0,3.09l1.1-.11c0-.49,0-1.26,0-1.51,0-1-.07-2.07,0-3.11s.21-1.79.62-1.71c.2,0,.45.68.49,1.28s.06,1.46,0,2.19,0,1.91,0,2.75l.95-.1c0-.46,0-1.11,0-1.32,0-1-.07-1.94,0-2.92s.18-1.68.55-1.61c.18,0,.4.64.43,1.2s.05,1.37,0,2.06,0,1.71,0,2.49Zm-27.36-16.63c-.07,1.1.07,3-.08,4.1,0,.21-3.5.08-3.49.08-.45,0-.46-1.85-.44-2.34.08-1.42-.27-2.81-.17-4.23.09-1.26.74-2.44,2.25-2.33a2.34,2.34,0,0,1,1.79,1.74A11.87,11.87,0,0,1,564.29,143.15Zm5.31,4.22H567c-.33,0-.24-1.7-.22-2.19.06-1.39-.2-2.75-.13-4.13.07-1.23.54-2.38,1.63-2.28.54,0,1.18.9,1.3,1.7a15.47,15.47,0,0,1,.11,2.91C569.6,144.47,569.73,146.29,569.6,147.37Zm5.15-3.56c0,.95,0,2.91-.16,3.85l-2.41-.05c-.32,0-.36-1.81-.34-2.23.06-1.21-.2-2.41-.13-3.62s.54-2.08,1.63-2a1.86,1.86,0,0,1,1.3,1.48A12.11,12.11,0,0,1,574.75,143.81Zm5.15.38c0,.94,0,2.91-.15,3.85l-2.41-.05c-.32,0-.37-1.81-.34-2.23.06-1.21-.19-2.41-.12-3.62s.54-2.08,1.63-2a1.85,1.85,0,0,1,1.3,1.48A11.83,11.83,0,0,1,579.9,144.19Zm3.71,3.93c-.08.42-1.94.14-1.94.14-.25,0-.28-1.71-.27-2.12.05-1.15-.14-2.28-.09-3.43s.42-2,1.27-1.89c.42,0,.92.75,1,1.41a13.68,13.68,0,0,1,.08,2.42A30.2,30.2,0,0,1,583.61,148.12Zm2.62-3.11c0,.81,0,2.51,0,3.32,0,.12-1.27,0-1.27,0-.16,0-.18-1.56-.17-1.92,0-1-.1-2.07-.06-3.11s.27-1.79.83-1.71c.27,0,.6.68.66,1.28A17.86,17.86,0,0,1,586.23,145Zm2.14.49c0,.77,0,2.4,0,3.18l-.95-.06a7.26,7.26,0,0,1-.13-1.83c0-1-.07-2,0-3s.2-1.71.62-1.63c.21,0,.45.64.5,1.22S588.38,144.81,588.37,145.5Zm1.87.34c0,.67,0,2.1,0,2.78,0,.1-.83-.06-.83-.06a6.24,6.24,0,0,1-.11-1.59c0-.87-.06-1.72,0-2.58s.18-1.49.54-1.42c.18,0,.39.56.43,1.06S590.25,145.24,590.24,145.84Z" fill="#c8c8c8"/><path d="M554.81,143.17a3.17,3.17,0,0,0-.25-.74c-.12-.24-.68-.22-.68-.22l-5.29-.42s-2-5.06-2.43-6.81c-.54-2.07-1.41-8.43-1.41-8.43s-.09-.63-.27-.78-.7-.11-.7-.11l-3.85.07-.87,0-.2-.52a65.71,65.71,0,0,1-2.53-6.77,66.33,66.33,0,0,1-.54-7.25s0-.4-.13-.5a1.12,1.12,0,0,0-.34-.14L534,110.5a2.43,2.43,0,0,1-.36-.14,1.76,1.76,0,0,1-.3-.35l-6-11.65A1.75,1.75,0,0,0,527,98a.76.76,0,0,0-.6,0c-23.37,7.13-24.79,19.14-24.79,19.14L500,160.76c.73,0,.38.06,1.1.08a55.75,55.75,0,0,1-.06-5.68c.06-1.09,1-1.95,1.43-1.37a4.32,4.32,0,0,1,.52,2.58c-.06.89,0,3.75-.14,4.52l1.4.05a51.71,51.71,0,0,1-.07-6c.07-1.16,1.22-2.09,1.79-1.46a4.09,4.09,0,0,1,.66,2.76c-.08.91,0,3.78-.15,4.75l1.37,0a44.12,44.12,0,0,1-.11-6.5c.1-1.23,1.6-2.21,2.34-1.55a3.72,3.72,0,0,1,.86,2.93c-.1,1,0,4.4-.23,5.2l2.34.07c-.22-1-.13-4.48-.25-5.55a3.76,3.76,0,0,1,1.05-3.2c.91-.72,2.75.35,2.87,1.69a42.27,42.27,0,0,1-.14,7.15l3.33.08c-.23-1.19-.14-4.91-.27-6.08a4.18,4.18,0,0,1,1.15-3.52c1-.79,3,.38,3.13,1.86a47.54,47.54,0,0,1-.14,7.83l3.67.07c-.34-1-.21-5.29-.38-6.59a4,4,0,0,1,1.42-3.72c1.23-.83,3.71.4,3.86,2a42.45,42.45,0,0,1-.19,8.39l0,0,4.48.05a91.18,91.18,0,0,1-.1-9.23,1.93,1.93,0,0,1,1.86-1.7c1.46-.19,3.57,1,3.41,2.9,0,.62,0,1.26,0,1.88s0,1.23,0,2a33.82,33.82,0,0,1-.26,4.18l4.65,0c-.45-.85-.28-5.62-.48-7a4.09,4.09,0,0,1,1.63-3.92c1.4-.88,4.24.43,4.42,2.07a41.46,41.46,0,0,1-.22,8.83s0,0,0,0c6.18,0,9.59-.11,9.59-.11l-5.35-10.5ZM516,104.34c.56-.12,1.25-.17,1.31.47.08.83-.76,1.13-1.39,1.28-.39.1-1.24.07-1.2-.58A1.26,1.26,0,0,1,516,104.34Zm-7.16,4.76a1.1,1.1,0,0,1,1.26.72c-.09.63-.56.77-1.11.86s-.89.1-1-.58A.79.79,0,0,1,508.85,109.11Zm-3.06,2.78c.57-.12,1.15.08,1.21.51s-.43.86-1,.83-1.07.26-1.18-.29S505.18,112,505.79,111.89ZM503,115.07c.54-.11,1.14-.15,1.29.49s-.34.79-.85.88-1-.06-1.19-.69S502.6,115.17,503,115.07Zm.42,31.92c0,.2-1.08.41-1.21.09s-.08-3.26-.13-4.11a4.52,4.52,0,0,1,.37-2.26c.32-.51,1,.25,1,1.19C503.49,143.22,503.47,145.68,503.38,147Zm1.09-14.76c0,.66,0,1.89,0,2.54,0,0-1.37,1-1.52.83a36.08,36.08,0,0,1-.15-4.8c0-.75.3-1.45.92-1.39.31,0,.67.55.73,1A10.19,10.19,0,0,1,504.47,132.23Zm2.35,14.09c0,.21-1.78.43-2,.1a41.94,41.94,0,0,1-.21-4.33,3.29,3.29,0,0,1,.62-2.38c.53-.54,1.61.26,1.68,1.26A39.91,39.91,0,0,1,506.82,146.32Zm.9-15.93c0,.77,0,2.22-.06,3,0,0-1.79.9-2,.68a34.58,34.58,0,0,1-.19-5.34c0-.88.4-1.71,1.21-1.63.4,0,.87.64,1,1.22A11,11,0,0,1,507.72,130.39Zm3.36,15.37c0,.23-2.49.47-2.8.11s-.17-3.71-.29-4.69a3,3,0,0,1,.86-2.57c.74-.57,2.25.28,2.34,1.36A33.33,33.33,0,0,1,511.07,145.77Zm1.11-17.09c0,.8,0,2.1-.06,2.9,0,0-2,.92-2.27.69a29.63,29.63,0,0,1-.22-5.33c.05-.92.45-1.77,1.37-1.69a1.57,1.57,0,0,1,1.09,1.26A10.09,10.09,0,0,1,512.18,128.68Zm0-20.28c-.62.11-1.29.06-1.25-.62a1.35,1.35,0,0,1,1.32-1.22c.56,0,1.26-.13,1.27.54A1.29,1.29,0,0,1,512.16,108.39Zm4.61,36.41c0,.23-2.82.67-3.16.29s-.2-4-.33-5,.54-2.8,1.84-2.8a1.61,1.61,0,0,1,1.78,1.57A30.68,30.68,0,0,1,516.76,144.81ZM518,126.89c-.05.9.06,2.39-.07,3.29,0,0-2.56.8-2.86.53s-.35-4.62-.28-5.78.57-2,1.73-1.9a1.84,1.84,0,0,1,1.37,1.42A10.29,10.29,0,0,1,518,126.89Zm.78-23.34c0-.74.59-1,1.12-1s1.25-.08,1.2.62-.81.71-1.44.8C519.33,103.92,518.79,104.23,518.75,103.55Zm5,40.57c0,.25-3.38.73-3.8.32s-.24-4.34-.39-5.42a3,3,0,0,1,1.16-2.85,2.41,2.41,0,0,1,3.18,1.51A30.45,30.45,0,0,1,523.73,144.12Zm.93-18.88c-.06,1,.07,2.59-.09,3.56,0,0-3.08.84-3.44.55s-.42-5-.33-6.21.69-2.14,2.08-2a2.11,2.11,0,0,1,1.65,1.53A9.87,9.87,0,0,1,524.66,125.23Zm-.9-22.75c-.31-.11-1.34.73-1.31-.32s1.15-1.31,2.06-1.55c.7-.19,1.51.24,1.47.63C525.89,102.32,524.88,102.45,523.76,102.48Zm8.38,40.77c-.05.26-4.11.75-4.62.33s-.29-4.47-.47-5.58a2.9,2.9,0,0,1,1.42-2.95c1.23-.66,3.71.32,3.86,1.56A26.64,26.64,0,0,1,532.13,143.25Zm.59-19.85c-.08,1,.09,2.86-.11,3.86,0,0-3.74.67-4.18.37s-.51-5.12-.4-6.4a2.19,2.19,0,0,1,2.52-2.11,2.45,2.45,0,0,1,2,1.58A8.68,8.68,0,0,1,532.73,123.4Zm8.94,17c.05.49,0,2.49-.58,2.59s-4.65-.06-4.65-.06a39.29,39.29,0,0,1-.23-4.21,8.58,8.58,0,0,1,.13-2.94A2.92,2.92,0,0,1,538.7,134c2-.15,2.95,1,3.09,2.23C542,137.66,541.52,139,541.66,140.45Z" fill="#c8c8c8"/><path d="M899.67,137.18v-3.53h-.09a2,2,0,0,0-1.35-1.34l-.27-1.08-.41-1.61-.41,1.61-.27,1.08a2,2,0,0,0-1.28,1.15h-.23v-5.87h-.64V124.3h-.45l-.29-1.43-.54-2.72-.54,2.72-.28,1.43h-.45v3.28h-.64v5.87h-1.37v2.82l-1.52,1v4.54l-1.18,0v-.15h0v-.84h-.57l-.21-.72-.23-.77-.23.77-.21.72h-.56v.84h0v.15h-.94v-2.58h-.37v-1.38h-.2l-.15-1-.2-1.31-.2,1.31-.14,1h-.19v1.38h-.38v2.58h-1.19v-.15h0v-.84H881l-.22-.72-.22-.77-.23.77-.22.72h-.57v.84h0v.15h-.92V139.1h-.38v-1.33H878l-.14-1-.2-1.26-.19,1.26-.15,1h-.2v1.33h-.38v2.72h-1.21v-.15h0v-.84H875l-.22-.72-.22-.77-.23.77-.21.72h-.57v.84h0v.15h-.91v-2.72h-.38v-1.33H872l-.15-1-.2-1.26-.19,1.26-.15,1h-.2v1.33h-.37v2.72h-1.22v-.15h0v-.84H869l-.21-.72-.23-.77-.22.77-.22.72h-.56v.84h0v.15h-.9v-2.58h-.38v-1.38h-.2l-.15-1-.2-1.31,0,.25v.31l-.15,1-.15,1h-.19v1.37h-.38V142h-1.21v-.11h0V141h-.56l-.21-.71-.23-.77-.22.77-.21.71h-.56v.86h0V142h-.88V139.4h-.37v-1.35h-.19l-.15-1-.19-1.27-.19,1.27-.15,1h-.19v1.35h-.37V142h-1.23v-.11h0V141h-.56l-.21-.71-.22-.77-.23.77-.21.71h-.56v.86h0V142h-.87v-2.41h-.37v-1.42h-.19l-.14-1-.19-1.34-.19,1.34-.15,1h-.2v1.42H853V142h-1.24v-.11h0V141h-.56l-.21-.71-.23-.77,0,.07-.2.69-.21.71h-.56v.86h0V142H849v-2.55h-.38V138.1h-.19l-.14-1-.19-1.3-.19,1.3-.14,1h-.2v1.37h-.37V142h-1.25v-.11h0V141h-.56l-.21-.71-.23-.77-.22.77-.21.71H844v.86h0V142h-.85v-2.41h-.37v-1.42h-.19l-.15-1-.19-1.34-.19,1.34-.14,1h-.19v1.42h-.38V142H840v-1h-.56l-.21-.71-.22-.77-.23.77-.21.71H838v1h-.84v-2.55h-.37V138.1h-.19l-.15-1-.19-1.3-.19,1.3-.14,1h-.19v1.37h-.38V142h-1.26v-1h-.56l-.21-.71,0-.14-.24-29h.8v0l-.18-17H834v-1.3l-1.87,0,0-2-4.48-8.17h0L827.54,77h-.08c-.35-.79-5.12-14.17-5.48-16.22h-.46c-.31,2.06-4.82,15.53-5.13,16.33h-.1l.06,5.71L812.09,91h0l0,2h0l-1.88,0v1.32h.3l.18,17v0h.8l.42,50.39h87.9l0-19.84.18-.09v-4Zm-77.08-26.34-.32,0A8.42,8.42,0,0,1,822.1,94h.26a8.41,8.41,0,0,1,.23,16.8Z" fill="#c8c8c8"/><path d="M822.2,101.46h0l-.06,0L818.6,98l-.93,1,3.54,3.46a1,1,0,0,0,1,1,.94.94,0,0,0,.29-.05l0-2.17Z" fill="#c8c8c8"/><path d="M826.91,96.67l-4.45,4.54,0,2.17a1,1,0,0,0,.69-.95v0l4.7-4.8Z" fill="#c8c8c8"/><path d="M779,126.75l-8.5,7v-26h-1v-2l-5-2-12-7v-3l-9-2v-1h1v-1H743v-2h-1v2h-1.5v1h1v1h0l-9,2v3l-12,7-5,2v2h-1v26l-8.5-7-8.5,7v28h90v-28Zm-76.5,15h-3v-3h3Zm5,0h-3v-3h3Zm5,0h-3v-3h3Zm8,15h-4v-18h4Zm.94-35.5a2.5,2.5,0,1,1,2.5-2.5A2.5,2.5,0,0,1,721.45,121.25Zm7,20.5a1.5,1.5,0,1,1,1.5-1.5A1.5,1.5,0,0,1,728.45,141.75Zm0-20.5a2.5,2.5,0,1,1,2.5-2.5A2.5,2.5,0,0,1,728.45,121.25Zm9.56,38.5h-5v-8h5Zm0-9h-5v-2h5Zm-4.06-10.5a1.5,1.5,0,1,1,1.5,1.5A1.5,1.5,0,0,1,733.95,140.25Zm1.5-19a2.5,2.5,0,1,1,2.5-2.5A2.5,2.5,0,0,1,735.45,121.25Zm9.56,38.5h-5v-8h5Zm0-9h-5v-2h5Zm-4.06-10.5a1.5,1.5,0,1,1,1.5,1.5A1.5,1.5,0,0,1,740.95,140.25Zm1.5-19a2.5,2.5,0,1,1,2.5-2.5A2.5,2.5,0,0,1,742.45,121.25Zm9.56,38.5h-5v-8h5Zm0-9h-5v-2h5Zm-4.06-10.5a1.5,1.5,0,1,1,1.5,1.5A1.5,1.5,0,0,1,747.95,140.25Zm1.5-19a2.5,2.5,0,1,1,2.5-2.5A2.5,2.5,0,0,1,749.45,121.25Zm7,20.5a1.5,1.5,0,1,1,1.5-1.5A1.5,1.5,0,0,1,756.45,141.75Zm0-20.5a2.5,2.5,0,1,1,2.5-2.5A2.5,2.5,0,0,1,756.45,121.25Zm4.5-2.5a2.5,2.5,0,1,1,2.5,2.5A2.5,2.5,0,0,1,760.95,118.75Zm7.56,38h-4v-18h4Zm7-15h-3v-3h3Zm5,0h-3v-3h3Zm5,0h-3v-3h3Z" fill="#c8c8c8"/><path d="M1440,105h-71.24c-51.76,0-57.25,3.31-70.57-10C1281.55,78.35,1279,80,1241,80H1154.4c-12,0-18.77,4.54-37.95,23.72-14.11,14.11-15.64,16.24-35.7,36.3-22.09,22.09-27,29-54.17,29H325c-15,0-19.12-7.06-28-15.92-14.23-14.23-15.85-14.74-46.41-14.74-40.31,0-30.62-1.12-84.88-1.12-43.19,0-45.26.44-58.56-12.87C87.43,104.58,84.84,105,59.92,105H0V219H1440Z" fill="#a1e455"/><rect y="213.5" width="1440" height="40" fill="#e1e1e1"/><rect y="247" width="1440" height="60" fill="#a1e455"/><path d="M182.92,213.43c-.12-.8-.16-1.48-.65-1.77-4.78-2.92-16.7-3.09-17.45-3.15s-3.5-.37-3.5-.37c-10.59-5.85-12.17-6.35-14.72-6.81a66.09,66.09,0,0,0-18.85-.18c-7.61,1-14.32,4.35-15.74,5s-1.17.5-3.43.71-5.38.26-6.4.26a3.05,3.05,0,0,0-.41,0,1.4,1.4,0,0,0-.91.39l-.06.08a.9.9,0,0,0-.15.33c-.12.48-.07,3.6-.21,4.06s-1.59,1.25-2,1.65c-.24.22.9,5.67,1.53,6.68s8,1.69,8,1.69l.08,0h1a7.15,7.15,0,0,0,1.36,2.39H105a3,3,0,0,0-2.53,1.21l-.55,1c-.23.57.36.76,1,.77l77.76.12c.66,0,1.09-.36.79-.95a3.13,3.13,0,0,0-3-1.51h-1.24c.32-1,.58-1.33.78-1.88.44,0,.89-.2,1.32-.24a7.8,7.8,0,0,0,3.57-.89.51.51,0,0,0,.19-.24.29.29,0,0,0,0-.06C183.16,221.16,183,214.23,182.92,213.43Zm-19.08,9.85,1.2,0a6.88,6.88,0,0,0,.61,1.08l-44.29,0a6.86,6.86,0,0,0,.87-1.39l1.82,0Z" fill="#848484"/><path d="M986.19,228.56a8,8,0,0,0-5-5.19c-3.84-1.57-17.5-7.41-21.49-8.69a49.07,49.07,0,0,0-19.42-2.13c-8,.85-11.53,1.28-12.1,2s-.28,1.07-.71,1.57-4.27,5.05-4.2,7.61.29,3.49-.64,4.62a9.24,9.24,0,0,0-1.41,2.76l0,.08,0,.16a9.23,9.23,0,0,0,0,6,.67.67,0,0,0,.59.43l1.58.1a5.59,5.59,0,0,0,.53,2,1.17,1.17,0,0,0-.43.45l-.94,1.72a.74.74,0,0,0,.65,1.1l63.58-.06a.68.68,0,0,0,.5-1.14l-1.33-1.45a1.88,1.88,0,0,0-1.38-.61h-2.22a5.63,5.63,0,0,0,.49-1.49,4.27,4.27,0,0,0,.4.19,1.27,1.27,0,0,0,1.07.14s1.82-.27,2.38-1.19a5.77,5.77,0,0,0,.78-3.06A52.85,52.85,0,0,0,986.19,228.56Zm-51.71,10.1c.35,0,.95.08,1.34.08.71,0,7.36,0,8.81-.06,1.66-.12,22.08-.44,23.69-.37.61,0,3.13-.2,3.29-.2a5.69,5.69,0,0,0,.56,1.74l-38.06-.11A5.64,5.64,0,0,0,934.48,238.66Z" fill="#848484"/><path d="M582,239.08c-.46-.71-1.33-.6-2.17-.61h-1.28c.08-.15.23-.55.29-.71l3.46,0a6.53,6.53,0,0,0,.85-1.12,11,11,0,0,0,1.29-6.77l-1-.82a11.63,11.63,0,0,0-1.6-4.23,3.81,3.81,0,0,0-1.2-1.26,27.07,27.07,0,0,0-2.64-.63c-5.21-1-12.75-1.54-12.75-1.54l-7.56-5.19c-2.94-2-6.33-2.4-9.06-2.55-.11,0-.24.13-.4.12a1.91,1.91,0,0,0-1.66-.79h-33.1a2.14,2.14,0,0,0-1.7.77,1.82,1.82,0,0,0-.59.07,8,8,0,0,0-3.75,2.55c-2.64,3.2-3.36,10.66-3.36,10.9v1.1c0,.14-1.27.47-1.27.47-.15,4.68,1.84,5.93,1.84,5.93a75,75,0,0,0,10,.67,6.82,6.82,0,0,0,.62,2l-6.08,0a2.59,2.59,0,0,0-2.05,1L506,240a.82.82,0,0,0,.69,1.26l75.31.41a.93.93,0,0,0,.78-1.43ZM564.6,237h1.19c.12,0,.29.66.52,1.12l-38.79-.46a5.11,5.11,0,0,0,.52-1.17Z" fill="#848484"/><path d="M1194.58,139h5.74l-1.5-63.18a4.36,4.36,0,0,1-2.73.25Z" fill="#0067a0"/><path d="M1197.37,67.74a3.54,3.54,0,1,0,1.7.39,3.54,3.54,0,0,0-1.7-.39Z" fill="#0067a0"/><path d="M1201.67,71.68a4.27,4.27,0,0,1-1.35,2.72,30.81,30.81,0,0,0,3.66,3.82c.78.4,11.18,3.81,14.66,4.61,2.12.49,7.32,1.53,7.79.51.08-.17,0-.39-.18-.68-.59-.8-5.35-3.3-5.66-3.46-11.28-6-16.67-7.27-18.92-7.52Z" fill="#0067a0"/><path d="M1193.43,40.24c-.18,0-.35.17-.5.5-.4.91-.19,6.28-.17,6.63.47,12.56,2,17.92,2.91,20.05a4.23,4.23,0,0,1,3.1-.17,30.09,30.09,0,0,0,1.45-5c0-.87-2.29-11.59-3.33-15-.64-2.09-2.34-7.11-3.46-7Z" fill="#0067a0"/><path d="M1193.24,71.89a31.88,31.88,0,0,0-5.26,1.29c-.73.47-8.89,7.78-11.33,10.39-1.73,1.86-6.18,6.95-3.66,6.67,1-.11,5.54-3,5.83-3.17,10.61-6.67,14.5-10.66,15.9-12.53a4.25,4.25,0,0,1-1.49-2.66Z" fill="#0067a0"/><path d="M1269.58,187h5.74l-1.5-63.18a4.36,4.36,0,0,1-2.73.25Z" fill="#0067a0"/><path d="M1272.37,115.74a3.54,3.54,0,1,0,1.7.39,3.54,3.54,0,0,0-1.7-.39Z" fill="#0067a0"/><path d="M1276.67,119.68a4.27,4.27,0,0,1-1.35,2.72,30.81,30.81,0,0,0,3.66,3.82c.78.4,11.18,3.81,14.66,4.61,2.12.49,7.32,1.53,7.79.51.08-.17,0-.39-.18-.68-.59-.8-5.35-3.3-5.66-3.46-11.28-6-16.67-7.27-18.92-7.52Z" fill="#0067a0"/><path d="M1268.43,88.24c-.18,0-.35.17-.5.5-.4.91-.19,6.28-.17,6.63.47,12.56,2,17.92,2.91,20.05a4.23,4.23,0,0,1,3.1-.17,30.09,30.09,0,0,0,1.45-5c0-.87-2.29-11.59-3.33-15-.64-2.09-2.34-7.11-3.46-7Z" fill="#0067a0"/><path d="M1268.24,119.89a31.88,31.88,0,0,0-5.26,1.29c-.73.47-8.89,7.78-11.33,10.39-1.73,1.86-6.18,6.95-3.66,6.67,1-.11,5.54-3,5.83-3.17,10.61-6.67,14.5-10.66,15.9-12.53a4.25,4.25,0,0,1-1.49-2.66Z" fill="#0067a0"/><path d="M186.58,167h5.74l-1.5-63.18a4.36,4.36,0,0,1-2.73.25Z" fill="#0067a0"/><path d="M189.37,95.74a3.54,3.54,0,1,0,1.7.39,3.54,3.54,0,0,0-1.7-.39Z" fill="#0067a0"/><path d="M193.67,99.68a4.27,4.27,0,0,1-1.35,2.72,30.81,30.81,0,0,0,3.66,3.82c.78.4,11.18,3.81,14.66,4.61,2.12.49,7.32,1.53,7.79.51.08-.17,0-.39-.18-.68-.59-.8-5.35-3.3-5.66-3.46-11.28-6-16.67-7.27-18.92-7.52Z" fill="#0067a0"/><path d="M185.43,68.24c-.18,0-.35.17-.5.5-.4.91-.19,6.28-.17,6.63.47,12.56,2,17.92,2.91,20.05a4.23,4.23,0,0,1,3.1-.17,30.09,30.09,0,0,0,1.45-5c0-.87-2.29-11.59-3.33-15-.64-2.09-2.34-7.11-3.46-7Z" fill="#0067a0"/><path d="M185.24,99.89a31.88,31.88,0,0,0-5.26,1.29c-.73.47-8.89,7.78-11.33,10.39-1.73,1.86-6.18,6.95-3.66,6.67,1-.11,5.54-3,5.83-3.17,10.61-6.67,14.5-10.66,15.9-12.53a4.25,4.25,0,0,1-1.49-2.66Z" fill="#0067a0"/><path d="M1041.25,161.08l-1.9,1.9c-.91.91-1,1.25-1.81,1.25a8.2,8.2,0,0,1-2-.05,15.74,15.74,0,0,1-.06-2.8c0-.64-2-.65-2,.14s.12,21.36.12,26.73c0,1,.11,1.16,1.15,1.16.78,0,1.08-.32,1.08-1,0-1.41,0-3.48,0-4.87,0-5.54,0-11,0-16.48,0-1.1.28-.9,1.23-.9h.95c1.52,0,1.5-.45,3-2,1.31-1.31,1.41-1.45,2.05-2.08S1042,160.36,1041.25,161.08Z" fill="#3a6c00"/><path d="M1047.44,159.19c-2.15-2.15-1.8-1.89-3.75-3.83s-2.56-1.75-6.67-1.75l-5,0a5.89,5.89,0,0,0-4.37,2,3.77,3.77,0,0,0-.19,4.63,5.21,5.21,0,0,0,4.38,1.81c2.69,0,10.57-.12,14.13-.12C1047.94,161.94,1049.06,160.81,1047.44,159.19Z" fill="#5cac00"/><path d="M384.25,152.08l-1.9,1.9c-.91.91-1,1.25-1.81,1.25a8.2,8.2,0,0,1-2-.05,15.74,15.74,0,0,1-.06-2.8c0-.64-2-.65-2,.14s.12,21.36.12,26.73c0,1,.11,1.16,1.15,1.16.78,0,1.08-.32,1.08-1,0-1.41,0-3.48,0-4.87,0-5.54,0-11,0-16.48,0-1.1.28-.9,1.23-.9H381c1.52,0,1.5-.45,3-2,1.31-1.31,1.41-1.45,2.05-2.08S385,151.36,384.25,152.08Z" fill="#3a6c00"/><path d="M390.44,150.19c-2.15-2.15-1.8-1.89-3.75-3.83s-2.56-1.75-6.67-1.75l-5,0a5.89,5.89,0,0,0-4.37,2,3.77,3.77,0,0,0-.19,4.63,5.21,5.21,0,0,0,4.38,1.81c2.69,0,10.57-.12,14.13-.12C390.94,152.94,392.06,151.81,390.44,150.19Z" fill="#5cac00"/><path d="M952.25,146.08l-1.9,1.9c-.91.91-1,1.25-1.81,1.25a8.2,8.2,0,0,1-2-.05,15.74,15.74,0,0,1-.06-2.8c0-.64-2-.65-2,.14s.12,21.36.12,26.73c0,1,.11,1.16,1.15,1.16.78,0,1.08-.32,1.08-1,0-1.41,0-3.48,0-4.87,0-5.54,0-11,0-16.48,0-1.1.28-.9,1.23-.9H949c1.52,0,1.5-.45,3-2,1.31-1.31,1.41-1.45,2.05-2.08S953,145.36,952.25,146.08Z" fill="#3a6c00"/><path d="M958.44,144.19c-2.15-2.15-1.8-1.89-3.75-3.83s-2.56-1.75-6.67-1.75l-5,0a5.89,5.89,0,0,0-4.37,2,3.77,3.77,0,0,0-.19,4.63,5.21,5.21,0,0,0,4.38,1.81c2.69,0,10.57-.12,14.13-.12C958.94,146.94,960.06,145.81,958.44,144.19Z" fill="#5cac00"/><path d="M1323.25,171.08l-1.9,1.9c-.91.91-1,1.25-1.81,1.25a8.2,8.2,0,0,1-2-.05,15.74,15.74,0,0,1-.06-2.8c0-.64-2-.65-2,.14s.12,21.36.12,26.73c0,1,.11,1.16,1.15,1.16.78,0,1.08-.32,1.08-1,0-1.41,0-3.48,0-4.87,0-5.54,0-11,0-16.48,0-1.1.28-.9,1.23-.9h.95c1.52,0,1.5-.45,3-2,1.31-1.31,1.41-1.45,2.05-2.08S1324,170.36,1323.25,171.08Z" fill="#3a6c00"/><path d="M1329.44,169.19c-2.15-2.15-1.8-1.89-3.75-3.83s-2.56-1.75-6.67-1.75l-5,0a5.89,5.89,0,0,0-4.37,2,3.77,3.77,0,0,0-.19,4.63,5.21,5.21,0,0,0,4.38,1.81c2.69,0,10.57-.12,14.13-.12C1329.94,171.94,1331.06,170.81,1329.44,169.19Z" fill="#5cac00"/><path d="M866.25,174.08l-1.9,1.9c-.91.91-1,1.25-1.81,1.25a8.2,8.2,0,0,1-2-.05,15.74,15.74,0,0,1-.06-2.8c0-.64-2-.65-2,.14s.12,21.36.12,26.73c0,1,.11,1.16,1.15,1.16.78,0,1.08-.32,1.08-1,0-1.41,0-3.48,0-4.87,0-5.54,0-11,0-16.48,0-1.1.28-.9,1.23-.9H863c1.52,0,1.5-.45,3-2,1.31-1.31,1.41-1.45,2.05-2.08S867,173.36,866.25,174.08Z" fill="#3a6c00"/><path d="M872.44,172.19c-2.15-2.15-1.8-1.89-3.75-3.83s-2.56-1.75-6.67-1.75l-5,0a5.89,5.89,0,0,0-4.37,2,3.77,3.77,0,0,0-.19,4.63,5.21,5.21,0,0,0,4.38,1.81c2.69,0,10.57-.12,14.13-.12C872.94,174.94,874.06,173.81,872.44,172.19Z" fill="#5cac00"/><path d="M405.25,164.08l-1.9,1.9c-.91.91-1,1.25-1.81,1.25a8.2,8.2,0,0,1-2-.05,15.74,15.74,0,0,1-.06-2.8c0-.64-2-.65-2,.14s.12,21.36.12,26.73c0,1,.11,1.16,1.15,1.16.78,0,1.08-.32,1.08-1,0-1.41,0-3.48,0-4.87,0-5.54,0-11,0-16.48,0-1.1.28-.9,1.23-.9H402c1.52,0,1.5-.45,3-2,1.31-1.31,1.41-1.45,2.05-2.08S406,163.36,405.25,164.08Z" fill="#3a6c00"/><path d="M411.44,162.19c-2.15-2.15-1.8-1.89-3.75-3.83s-2.56-1.75-6.67-1.75l-5,0a5.89,5.89,0,0,0-4.37,2,3.77,3.77,0,0,0-.19,4.63,5.21,5.21,0,0,0,4.38,1.81c2.69,0,10.57-.12,14.13-.12C411.94,164.94,413.06,163.81,411.44,162.19Z" fill="#5cac00"/><path d="M1068.25,146.08l-1.9,1.9c-.91.91-1,1.25-1.81,1.25a8.2,8.2,0,0,1-2-.05,15.74,15.74,0,0,1-.06-2.8c0-.64-2-.65-2,.14s.12,21.36.12,26.73c0,1,.11,1.16,1.15,1.16.78,0,1.08-.32,1.08-1,0-1.41,0-3.48,0-4.87,0-5.54,0-11,0-16.48,0-1.1.28-.9,1.23-.9h.95c1.52,0,1.5-.45,3-2,1.31-1.31,1.41-1.45,2.05-2.08S1069,145.36,1068.25,146.08Z" fill="#3a6c00"/><path d="M1074.44,144.19c-2.15-2.15-1.8-1.89-3.75-3.83s-2.56-1.75-6.67-1.75l-5,0a5.89,5.89,0,0,0-4.37,2,3.77,3.77,0,0,0-.19,4.63,5.21,5.21,0,0,0,4.38,1.81c2.69,0,10.57-.12,14.13-.12C1074.94,146.94,1076.06,145.81,1074.44,144.19Z" fill="#5cac00"/><path d="M174.25,171.08l-1.9,1.9c-.91.91-1,1.25-1.81,1.25a8.2,8.2,0,0,1-2-.05,15.74,15.74,0,0,1-.06-2.8c0-.64-2-.65-2,.14s.12,21.36.12,26.73c0,1,.11,1.16,1.15,1.16.78,0,1.08-.32,1.08-1,0-1.41,0-3.48,0-4.87,0-5.54,0-11,0-16.48,0-1.1.28-.9,1.23-.9H171c1.52,0,1.5-.45,3-2,1.31-1.31,1.41-1.45,2.05-2.08S175,170.36,174.25,171.08Z" fill="#3a6c00"/><path d="M180.44,169.19c-2.15-2.15-1.8-1.89-3.75-3.83s-2.56-1.75-6.67-1.75l-5,0a5.89,5.89,0,0,0-4.37,2,3.77,3.77,0,0,0-.19,4.63,5.21,5.21,0,0,0,4.38,1.81c2.69,0,10.57-.12,14.13-.12C180.94,171.94,182.06,170.81,180.44,169.19Z" fill="#5cac00"/><path d="M291.25,137.08l-1.9,1.9c-.91.91-1,1.25-1.81,1.25a8.2,8.2,0,0,1-2-.05,15.74,15.74,0,0,1-.06-2.8c0-.64-2-.65-2,.14s.12,21.36.12,26.73c0,1,.11,1.16,1.15,1.16.78,0,1.08-.32,1.08-1,0-1.41,0-3.48,0-4.87,0-5.54,0-11,0-16.48,0-1.1.28-.9,1.23-.9H288c1.52,0,1.5-.45,3-2,1.31-1.31,1.41-1.45,2.05-2.08S292,136.36,291.25,137.08Z" fill="#3a6c00"/><path d="M297.44,135.19c-2.15-2.15-1.8-1.89-3.75-3.83s-2.56-1.75-6.67-1.75l-5,0a5.89,5.89,0,0,0-4.37,2,3.77,3.77,0,0,0-.19,4.63,5.21,5.21,0,0,0,4.38,1.81c2.69,0,10.57-.12,14.13-.12C297.94,137.94,299.06,136.81,297.44,135.19Z" fill="#5cac00"/><path d="M102.25,175.08l-1.9,1.9c-.91.91-1,1.25-1.81,1.25a8.2,8.2,0,0,1-2-.05,15.74,15.74,0,0,1-.06-2.8c0-.64-2-.65-2,.14s.12,21.36.12,26.73c0,1,.11,1.16,1.15,1.16.78,0,1.08-.32,1.08-1,0-1.41,0-3.48,0-4.87,0-5.54,0-11,0-16.48,0-1.1.28-.9,1.23-.9H99c1.52,0,1.5-.45,3-2,1.31-1.31,1.41-1.45,2.05-2.08S103,174.36,102.25,175.08Z" fill="#3a6c00"/><path d="M108.44,173.19c-2.15-2.15-1.8-1.89-3.75-3.83s-2.56-1.75-6.67-1.75l-5,0a5.89,5.89,0,0,0-4.37,2,3.77,3.77,0,0,0-.19,4.63,5.21,5.21,0,0,0,4.38,1.81c2.69,0,10.57-.12,14.13-.12C108.94,175.94,110.06,174.81,108.44,173.19Z" fill="#5cac00"/><path d="M1404.25,137.08l-1.9,1.9c-.91.91-1,1.25-1.81,1.25a8.2,8.2,0,0,1-2-.05,15.74,15.74,0,0,1-.06-2.8c0-.64-2-.65-2,.14s.12,21.36.12,26.73c0,1,.11,1.16,1.15,1.16.78,0,1.08-.32,1.08-1,0-1.41,0-3.48,0-4.87,0-5.54,0-11,0-16.48,0-1.1.28-.9,1.23-.9h.95c1.52,0,1.5-.45,3-2,1.31-1.31,1.41-1.45,2.05-2.08S1405,136.36,1404.25,137.08Z" fill="#3a6c00"/><path d="M1410.44,135.19c-2.15-2.15-1.8-1.89-3.75-3.83s-2.56-1.75-6.67-1.75l-5,0a5.89,5.89,0,0,0-4.37,2,3.77,3.77,0,0,0-.19,4.63,5.21,5.21,0,0,0,4.38,1.81c2.69,0,10.57-.12,14.13-.12C1410.94,137.94,1412.06,136.81,1410.44,135.19Z" fill="#5cac00"/><path d="M111.25,111.08l-1.9,1.9c-.91.91-1,1.25-1.81,1.25a8.2,8.2,0,0,1-2-.05,15.74,15.74,0,0,1-.06-2.8c0-.64-2-.65-2,.14s.12,21.36.12,26.73c0,1,.11,1.16,1.15,1.16.78,0,1.08-.32,1.08-1,0-1.41,0-3.48,0-4.87,0-5.54,0-11,0-16.48,0-1.1.28-.9,1.23-.9H108c1.52,0,1.5-.45,3-2,1.31-1.31,1.41-1.45,2.05-2.08S112,110.36,111.25,111.08Z" fill="#3a6c00"/><path d="M117.44,109.19c-2.15-2.15-1.8-1.89-3.75-3.83s-2.56-1.75-6.67-1.75l-5,0a5.89,5.89,0,0,0-4.37,2,3.77,3.77,0,0,0-.19,4.63,5.21,5.21,0,0,0,4.38,1.81c2.69,0,10.57-.12,14.13-.12C117.94,111.94,119.06,110.81,117.44,109.19Z" fill="#5cac00"/><path d="M650.68,224.22c1.86-2.87,6.71,0,0,0Z" fill="#e1e1e1"/><path d="M644.11,187.63c-1.88.1-2.19-.09-2.88,1.45a8.71,8.71,0,0,0-.47,1.42,2.37,2.37,0,0,0,.22,1.44,1,1,0,0,0,1.29.13c.38-.31.35-1.22.54-1.67a5,5,0,0,1,.85-1.7c.09-.09,1.26-1.13.45-1.09Z" fill="#d84a01"/><path d="M795.37,193.3a12.34,12.34,0,0,0-6.46-4.47c-4.44-1.27-10.4-.73-13.59-.9-6.09-.33-12.14-.13-18.31-.29q-10.61-.28-21.23,0c-28.33.8-56.7-.61-85-.06-1.84,0-5.79-1.6-6.47.18-.15.38-.54.38-1,1.12a10.43,10.43,0,0,0-1,2.7c-.07.55-.69,1.1-1.6-.14a44.79,44.79,0,0,0-.55,6.12,31.52,31.52,0,0,0,.38,5.53c.22,1.29.29,1.53,1.12,1.53,2.65,0,6.09.66,8.8.66,4.14,0,8.35.71,12.22.71h21.57c14.12,0,28.4-.64,42.5-.64,7.62,0,13.46-.23,20.17-.23,7.29,0,15.12-.27,21.93.5a37.89,37.89,0,0,1,8.75,1.74,46.13,46.13,0,0,1,9.59,4.53c3.1,1.95,12.61-5.51,12.49-6.31a53.05,53.05,0,0,0-1.15-5.94,13.82,13.82,0,0,0-1.6-3.33C796.37,195.09,795.71,194.13,795.37,193.3Zm-143.58,8c-1.62.18-3.25.33-4.87.42-2,.12-4.27.78-4.71-1.63,2.43,2.44,8.31,1.08,11.41,1Q652.71,201.21,651.79,201.31Zm10.38.76c-.2-1.06-1.75-.9-2.53-1,4.85,0,9.69.25,14.53.51,2.46.13,4.92.27,7.38.37,2.12.09,5-.29,7,.27l-26.43-.18C662.1,201.7,671,202.13,662.17,202.07Z" fill="#646464"/><path d="M798.53,199.51c-1.48-4.21-2.2-7.46-6.65-10.14-2.09-1.26-6.08-3.06-13.87-3.06-7.14,0-11.71,0-14.54,0-15.23,0-30.33-.33-45.49-.33-15.59,0-31.09-.1-47.69-.1l-24.4,0a5.56,5.56,0,0,0-3.4,1.89c1.72,0,2.65,0,3.87,0,2.54-.06,8-.1,10.14-.1,6.51,0,17.16,0,23.77,0,15.18,0,24.14.29,39.08.29,15.87,0,31.62,0,47.65,0,6.67,0,11.65,0,17.46.29,1.61.08,5.79.53,8.75,2.87C795.81,193.24,797.23,197,798.53,199.51Z" fill="#e1e1e1"/><path d="M797.76,206.81a17.26,17.26,0,0,0-2.91-7.63c-.64-.89-2.13,0-1.49.87.08.11.39.22.46.33s.17.24.17.4h0a6,6,0,0,0-4.13-.81,1.05,1.05,0,0,0-.94,1c-.4-.51-1.55-.57-1.55.25,0,3.3-.16,6-.16,8.73,0,.36.8.41,1.2.53,1.08.31,6.9,1.34,9,2,.39.12.65.24.65-.5C798.05,211.5,797.93,207.84,797.76,206.81Z" fill="#e1e1e1"/><path d="M794.92,198.61c-1.81,0-6.34,0-7.65,0,0,1.53,0,2.34,0,3.73,1.84-.11,1.62-.65,3.61-.53a19.53,19.53,0,0,1,6,1.39A12.31,12.31,0,0,0,794.92,198.61Z" fill="#00b5e2"/><path d="M697,195.74c1.11,0,3.21-1.82,2.1-1.82H646.5c-1.11,0-3.31,1.84-2.2,1.84Z" fill="#00b5e2"/><path d="M730.55,198.49,682.33,198c-1.11,0-2.31,1.68-1.2,1.69l47.84.48C730.08,200.15,731.66,198.5,730.55,198.49Z" fill="#00b5e2"/><path d="M745.55,195h-5.24c-.75,0-2.39.64-1.77,1.13.41.32,8.83-.1,10.46-.1,7.09,0,13.2,0,19.72,0,3.66,0,14.09,0,14.4-.09.81-.33,2.2-1.2,1.27-1.19C769.76,194.9,758.38,195,745.55,195Z" fill="#00b5e2"/><path d="M796.5,230.73c-3.58-1.41-5.87-2.89-10.5-3-5.18-.09-11.17-8.75-13.25-9.81-3.31-1.69-7.77-1-10.75.75-1.65.95-7.39,5.63-4.81,7.82-22.93,0-46.35-2.43-69.16.46a7.75,7.75,0,0,0-8.56-10.12c-4.84.6-14.27,3.17-11.52,10.09-7,.2-18.87-.6-22.22,1.22-7.11,3.86-1.83,4.5,1.82,4.5,17.89,0,40.19-.12,57.38-.12,18.37,0,36.52.22,54.08.22,9.26,0,17,.24,26,.24,2.6,0,10.81-.08,12.63-.17,1.15-.05,1.44-1.08-1.17-2.11Zm-113.91-6.34c-1.93,4.17,1,4.38-3.85,4.82-4.27.39-2.79.42-3.6-2.24-2.67-8.8,8-3.86,7.45-2.58Z" fill="#646464"/><path d="M762.2,228c2.08,0,3.5-6,4.92-6.53,4.45-1.78,3.7,1,5.58,3.27,1.2,1.44-2.49,2.23,2.3,2.61,5.35.43-.16-8.31-2.24-9.36-3.31-1.69-7.77-1-10.75.75-1.65.95-7.39,5.63-4.81,7.82-22.93,0-46.35-2.43-69.16.46a7.75,7.75,0,0,0-8.56-10.12c-4.84.6-13.31,4.1-10.56,11Zm-79.61-3.57c-1.93,4.17,1,4.38-3.85,4.82-4.27.39-2.79.42-3.6-2.24-2.67-8.8,8-3.86,7.45-2.58Z" fill="#172b00"/><path d="M778.05,199.66c1.11,0,2.54-1.6,1.43-1.6l-44.2-.19c-1.11,0-2.54,1.69-1.44,1.69l10.43,0" fill="#00b5e2"/><path d="M725.24,190.39l-49.37-.34c-1.11,0-3,1.66-1.91,1.66,16.46.11,32.43.37,48.89.48C724,192.2,726.35,190.4,725.24,190.39Z" fill="#ddd"/><path d="M796,201.72a56.77,56.77,0,0,0-8-.53c-8.78-.13-17.79,0-26.79-.1-30.16-.34-60.4-.41-90.56-.75-4.65-.05-9.36,0-14-.21-2.89-.11-1-.53-8.61-.48-1,0-4.11,0-5.93,0-.45,0-.49.74-.38,1.67.08.69.5.75,1.2.77,3,.06,9.11,0,10.38,0,15,.37,30.58.31,45.88.48,29.59.33,58.85.66,88.4.81,4.8,0,9.39-.89,10.29,4.81s-1.68,3.88-5.89,3c-3.87-.81-3.68-.19-4.88.43.57.48,3.5,2.29,6.79,4.4a47.82,47.82,0,0,1,6.17,4.4c0-1.67,0-9.38-.29-14.59A4.73,4.73,0,0,0,796,201.72Z" fill="#172b00"/><path d="M807.6,200.56c-.14-.82-.3-1.63-.45-2.44-.2-1.06-.64-3.06-1.62-3.67a6.16,6.16,0,0,0-3-.48l-1.89-.09-4.57-.22c-1.65-.07-3.29-.11-4.94-.12-.79,0-1.58,0-2.37,0-.38,0-.76,0-1.13.09a4.1,4.1,0,0,0-1.32.32c-.28.34.14.69.42.9a5.66,5.66,0,0,0,2.67.86,55,55,0,0,0,8,.42c1.34,0,2.69-.06,4-.18a23.71,23.71,0,0,1,3.22-.08,8.11,8.11,0,0,1,.7,2.07c.15.65.3,1.3.45,2,.21.88.38,1.78.62,2.65.14.5.34.78.89.78s.79-.14.77-.61A16.86,16.86,0,0,1,807.6,200.56Z" fill="#172b00"/><path d="M807.54,198.54a7.73,7.73,0,0,0-1.1-3.5c-.82-1-.81-1-2.27-1-.42,0,1.79-.38,2.48,2.24.09.32.39,1.55.65,3s.51,3.07.52,3.19.08.38.27.37A36.39,36.39,0,0,0,807.54,198.54Z" fill="#e1e1e1"/><path d="M798.15,218.84c-2.66-2.06-5.46-3.5-8.23-5.41a43.1,43.1,0,0,0-15.55-7c-6-1.33-14.73-1.63-22.24-1.63l-80.75,0c-6.6,0-24.88-.19-28.46-.19-2.53,0-2.4,3.82-1,5.58,1.58,1.94,3.77,3.44,5.59,5.16,2.55,2.42,5,5.58,7.86,7.65,2.31,1.67,3.61,5,6.48,5l9.88-.12c-.46-2-.63-4.78.54-6.8,1.27-2.2,2.49-2.91,6.65-2.91,4.35,0,5.41.65,6.79,4a12,12,0,0,1,.41,5.81c1.26,0,12.57-.06,17.05-.06l43,.2,13.59,0c-.1-3.44.25-4.77,1.34-7,1.44-3,3.83-3.09,6.51-3.1s5.26.19,6.84,3.69c1,2.19,1.1,3.73.72,6.79,1.48,0,7.61,0,9.71,0,3.49,0,7.49-.5,11.61-.5,3.16,0,4.17-.23,4.17-2.33,0-.27.4-2.1.4-3.19C801.06,220.88,799.36,219.78,798.15,218.84Z" fill="#73d700"/><path d="M774.22,223.95a6.92,6.92,0,0,0-9.76-4.4,7.09,7.09,0,0,0-3.58,8c1,4.24,6.06,5.93,9.77,4.25C773.87,230.37,774.65,227.15,774.22,223.95Z" fill="#172b00"/><path d="M678.75,218.74a6.56,6.56,0,0,0-6.82,6.77,6.85,6.85,0,1,0,6.82-6.77Z" fill="#172b00"/><path d="M767.48,222a3.8,3.8,0,0,0-4,4,4,4,0,0,0,8.08,0A3.88,3.88,0,0,0,767.48,222Z" fill="#73d700"/><path d="M678.7,221.76a3.86,3.86,0,0,0-4.11,4.11,4,4,0,0,0,8.08-.1A3.84,3.84,0,0,0,678.7,221.76Z" fill="#73d700"/><path d="M666,224.11a46.66,46.66,0,0,1-7-3.26c-3.26-1.83-4.34-3.25-6.39-5.69a23.31,23.31,0,0,1-3.11-6.41c-.28-.9-1-3.24-1.34-4.07-1.91,0-4.23,0-5.81,0-.62,0-1.75,4.12-1.84,6.42,0,1-.57,2.58-.62,4.16a48.38,48.38,0,0,0,.25,4.84c.1,1.16.32,2.86.42,4,.13,1.47.05,1.65,1.44,1.91,5.93,1.15,8.12,1.79,14,1.79,3,0,6,.24,9.33.24h6.24c-.07,0-.14-1.47-.22-1.75C670.38,226.1,668.76,225,666,224.11Z" fill="#fff"/><path d="M665.4,225.16a43.3,43.3,0,0,1-5.55-2.3,25.06,25.06,0,0,1-8.6-6.81c-1.17-1.42-2.4-4.62-3-6.49-.3-.9-1.18-3.72-1.58-4.88-1.91,0-3.28,0-4.86,0-.62,0-.88,0-1.08-.93-.35-1.66-.38-3.54-.57-5.17,0,1,0,1.83,0,2.83,0,1.27,0,2.52,0,3.76,0,1.81,0,4.2-.1,6.5,0,1-.57,2.58-.62,4.16a48.38,48.38,0,0,0,.25,4.84c.1,1.16.32,2.86.42,4,.13,1.47.05,1.65,1.44,1.91a58.32,58.32,0,0,0,14,1.48l9.16,0h7.33c-.07-.29-.32-.48-.39-.75C670.54,227.09,668.18,226.06,665.4,225.16Z" fill="#ffad00"/><path d="M685.62,217.46l2.5-7.94c.25-1.08,1.71-1.57,2.25-.76l1.35,1.72s.1.26.15.23l9.3-5.95H711l-15.45,10.66c-.06,0-.07,0,0,.07l1.26,1.71a1.18,1.18,0,0,1-.73,1.91l-9,.24A1.36,1.36,0,0,1,685.62,217.46Z" fill="#fff"/><path d="M686.55,217.58,689,210a.53.53,0,0,1,.91-.18l1.68,2.26,10.48-7.24h6.83l-14.84,10.5,1.78,2.13c.39.48.08.83-.42.87l-8.34,0A.6.6,0,0,1,686.55,217.58Z" fill="#ffad00"/><path d="M712.19,214.68l-2.5,7.94c-.25,1.08-1.71,1.57-2.25.76l-1.35-1.72a.1.1,0,0,0-.15,0L697.5,228h-9.92l14.68-11.06a.13.13,0,0,0,0-.18L701,215a1.2,1.2,0,0,1,.73-1.94l9-.26A1.35,1.35,0,0,1,712.19,214.68Z" fill="#fff"/><path d="M711.26,214.56l-2.46,7.58a.53.53,0,0,1-.91.18l-1.68-2L696,228l-7.17.08,14.9-11L702,214.83c-.39-.48-.08-.9.42-.95l8.34-.07A.57.57,0,0,1,711.26,214.56Z" fill="#ffad00"/><path d="M717.18,208.51a.77.77,0,0,0-.77.77v7.21h2v-3.13h2.89a.77.77,0,0,0,.77-.77v-.87h-3.66v-1.2a.38.38,0,0,1,.39-.39h3.47a.77.77,0,0,0,.77-.77v-.87h-5.9Z" fill="#fff"/><path d="M726.37,214.84a.38.38,0,0,1-.39-.39v-5.18a.77.77,0,0,0-.77-.77h-1.28v7.21a.77.77,0,0,0,.77.77h4.19a.77.77,0,0,0,.77-.77v-.87h-3.3Z" fill="#fff"/><path d="M732.6,216.49h-2v-4.17a.77.77,0,0,1,.77-.77h1.28v4.94Z" fill="#fff"/><path d="M731.84,210.81h-1.28v-1.53a.77.77,0,0,1,.77-.77h.51a.77.77,0,0,1,.77.77V210a.78.78,0,0,1-.77.76" fill="#fff"/><path d="M745.69,215.2h-1.41a.74.74,0,0,1-.74-.74v-1.35h2.14a1,1,0,0,1,0,2.09m-2.14-5.39h1.92a.92.92,0,0,1,0,1.84h-1.26a.66.66,0,0,1-.66-.65Zm4.33,2.75-.2-.16a2.1,2.1,0,0,0,.55-1.56,2.19,2.19,0,0,0-2.4-2.32h-3.15a.77.77,0,0,0-.77.77v6.45a.77.77,0,0,0,.77.77h3.5a2.13,2.13,0,0,0,2.33-2.31,2.19,2.19,0,0,0-.63-1.64" fill="#fff"/><path d="M755.68,208.51h-.9a.76.76,0,0,0-.76.76V214a1.12,1.12,0,0,1-1.27,1.13h-.37A1.12,1.12,0,0,1,751.1,214v-5.5h-.9a.76.76,0,0,0-.76.76v5a2.32,2.32,0,0,0,2.63,2.34h1c1.67,0,2.63-.93,2.63-2.34Z" fill="#fff"/><path d="M758.89,210.12h2.58a.77.77,0,0,0,.77-.77v-.87h-3.35a2.44,2.44,0,0,0-2.42,2.44,2.37,2.37,0,0,0,2.38,2.36h1a.78.78,0,0,1,.76.77.76.76,0,0,1-.76.77h-3.34v.87a.77.77,0,0,0,.77.77h2.6a2.44,2.44,0,0,0,2.4-2.44,2.38,2.38,0,0,0-2.36-2.36h-1.07a.77.77,0,0,1,0-1.54" fill="#fff"/><path d="M740.36,215.07l-1.39-1.9-1.19,1.64,1,1.4a1,1,0,0,0,1.33.21l0,0a1,1,0,0,0,.21-1.33" fill="#fff"/><path d="M738.5,212.5l-1.2-1.65-1.5-2.06a1,1,0,0,0-1.33-.21l0,0a1,1,0,0,0-.21,1.33l1.86,2.57-1.86,2.57a1,1,0,0,0,.2,1.34l0,0a1,1,0,0,0,1.33-.21l1.1-1.51Z" fill="#fff"/><path d="M740.15,208.59l0,0a1,1,0,0,0-1.33.21l-1,1.4,1.2,1.65,1.39-1.9a1,1,0,0,0-.22-1.34" fill="#fff"/><path d="M775.18,228.23c.86.05,17.37-.48,22.49-.65,1.77-.06,2.9,0,3-1.4.08-1.23.54-3.94.14-4.9s-1.27-1.34-3-2.65a17,17,0,0,0-2.5-1.79,31.62,31.62,0,0,1-5.67,4.43,79,79,0,0,1-11.19,4.25,19.05,19.05,0,0,1-3,.5C775.31,226.77,775.27,227.49,775.18,228.23Z" fill="#fff"/><path d="M775.13,228.5c.55,0,8.86,0,15.71,0a67.54,67.54,0,0,0,8-.58c1.69-.18,2-.49,2-1.82.07-1.18.37-3.72,0-4.64s-.93-1.31-2.61-2.54L796,217.29a36.27,36.27,0,0,1-6,4.7,83.14,83.14,0,0,1-11.24,4.31,23.41,23.41,0,0,1-3.48.44C775.27,227.46,775.22,227.78,775.13,228.5Z" fill="#ffad00"/></g></svg>
