<svg id="Ebene_1" data-name="Ebene 1" xmlns="http://www.w3.org/2000/svg" viewBox="0 0 126 24"><title>fb_white</title><path d="M3.4,1.29A2.06,2.06,0,0,0,1.34,3.34V22.72H6.82V14.3h7.77a2.06,2.06,0,0,0,2.06-2.06V9.92H6.82V6.7a1,1,0,0,1,1-1h9.31a2.06,2.06,0,0,0,2.06-2.06V1.29Z" style="fill:#fff"/><path d="M28.09,18.31a1,1,0,0,1-1-1V3.36A2.07,2.07,0,0,0,25,1.29H21.55V20.65a2.07,2.07,0,0,0,2.07,2.07H34.88a2.07,2.07,0,0,0,2.07-2.07V18.31Z" style="fill:#fff"/><path d="M44.85,22.72H39.36V11.53a2.07,2.07,0,0,1,2.06-2.06h3.43Z" style="fill:#fff"/><path d="M42.79,7.47H39.36V3.35a2.07,2.07,0,0,1,2.06-2.06h1.37a2.07,2.07,0,0,1,2.06,2.06V5.41a2.07,2.07,0,0,1-2.06,2.06" style="fill:#fff"/><path d="M80,19.24H76.21a2,2,0,0,1-2-2v-3.6H80a2.79,2.79,0,0,1,0,5.58M74.23,4.77h5.15a2.49,2.49,0,0,1,0,5H76A1.78,1.78,0,0,1,74.23,8Zm11.64,7.39c-.12-.11-.45-.37-.54-.44a5.7,5.7,0,0,0,1.46-4.2c0-3.91-2.53-6.22-6.44-6.22H71.9a2.06,2.06,0,0,0-2.05,2.05V20.66a2.06,2.06,0,0,0,2.05,2.05h9.41c3.91,0,6.27-2.28,6.27-6.19a5.92,5.92,0,0,0-1.72-4.36" style="fill:#fff"/><path d="M106.82,1.28H104.4a2,2,0,0,0-2,2V16c0,1.83-1.26,3-3.43,3h-1c-2.17,0-3.43-1.22-3.43-3V1.28H92.1a2,2,0,0,0-2,2V16.72c0,3.77,2.59,6.28,7.07,6.28h2.59c4.48,0,7.07-2.51,7.07-6.28Z" style="fill:#fff"/><path d="M115.44,5.64h6.93a2.06,2.06,0,0,0,2.05-2.05V1.26h-9A6.55,6.55,0,0,0,109,7.81a6.37,6.37,0,0,0,6.39,6.34h2.83a2.08,2.08,0,0,1,0,4.15h-9v2.33a2.06,2.06,0,0,0,2.05,2.05h7a6.55,6.55,0,0,0,6.44-6.55,6.36,6.36,0,0,0-6.34-6.34h-2.88a2.08,2.08,0,0,1,0-4.15" style="fill:#fff"/><path d="M65.67,18.9,62,13.78l-3.21,4.41,2.73,3.76a2.56,2.56,0,0,0,3.57.57l.06,0a2.56,2.56,0,0,0,.57-3.57" style="fill:#fff"/><path d="M60.66,12l-3.2-4.41-4-5.53a2.56,2.56,0,0,0-3.57-.57l-.06,0a2.56,2.56,0,0,0-.57,3.57l5,6.89-5,6.9a2.57,2.57,0,0,0,.56,3.58l.06,0a2.56,2.56,0,0,0,3.57-.57l3-4.06Z" style="fill:#fff"/><path d="M65.11,1.53l-.06,0a2.56,2.56,0,0,0-3.57.57L58.75,5.81,62,10.22,65.67,5.1a2.56,2.56,0,0,0-.57-3.57" style="fill:#fff"/></svg>