<svg id="Layer_1" data-name="Layer 1" xmlns="http://www.w3.org/2000/svg" viewBox="0 0 50 50"><title>profile</title><path d="M25.15,22.49c-4.51,0-8.18-4.28-8.18-9.55s3.67-9.55,8.18-9.55,8.18,4.28,8.18,9.55S29.66,22.49,25.15,22.49Zm0-17.1C21.74,5.39,19,8.78,19,12.94s2.77,7.55,6.18,7.55,6.18-3.39,6.18-7.55S28.56,5.39,25.15,5.39Z" style="fill:#8b8b8b"/><path d="M41.32,46.61H8.72a2.5,2.5,0,0,1-2.49-2.5V38.56a15.52,15.52,0,0,1,9.86-14.38,2.62,2.62,0,0,1,2.57.42,9.9,9.9,0,0,0,12.77,0A2.62,2.62,0,0,1,34,24.18h0a15.29,15.29,0,0,1,9.78,14.38v5.59A2.46,2.46,0,0,1,41.32,46.61ZM17,26a.54.54,0,0,0-.19,0A13.5,13.5,0,0,0,8.22,38.56v5.55a.5.5,0,0,0,.49.5H41.32a.45.45,0,0,0,.45-.45V38.56A13.3,13.3,0,0,0,33.27,26a.61.61,0,0,0-.6.11,11.9,11.9,0,0,1-15.27,0A.65.65,0,0,0,17,26Z" style="fill:#8b8b8b"/></svg>